<svg id="svg" version="1.1" xmlns="http://www.w3.org/2000/svg" xmlns:xlink="http://www.w3.org/1999/xlink" width="400" height="81.68421052631578" viewBox="0, 0, 400,81.68421052631578"><g id="svgg"><path id="path0" d="M341.085 10.120 C 340.720 10.160,340.383 10.243,340.335 10.305 C 340.288 10.367,339.950 10.520,339.583 10.645 C 337.731 11.275,335.642 13.906,335.429 15.877 C 335.378 16.357,335.316 18.488,335.293 20.611 C 335.269 22.735,335.193 24.530,335.123 24.600 C 334.879 24.843,333.231 24.976,330.250 24.991 C 324.629 25.020,322.545 25.976,320.807 29.323 L 320.250 30.395 320.204 48.573 C 320.155 67.795,320.171 68.233,320.941 69.755 C 321.360 70.583,322.830 72.333,323.106 72.333 C 323.168 72.333,323.464 72.521,323.765 72.750 C 324.065 72.979,324.361 73.167,324.423 73.167 C 324.485 73.167,324.910 73.355,325.369 73.586 L 326.204 74.005 354.076 73.961 C 373.050 73.931,382.024 73.861,382.183 73.743 C 382.311 73.648,382.848 73.429,383.375 73.258 C 383.902 73.086,384.333 72.888,384.333 72.817 C 384.333 72.747,384.476 72.644,384.650 72.589 C 385.293 72.384,386.666 70.815,387.252 69.613 L 387.839 68.409 387.794 49.243 L 387.750 30.076 387.045 28.913 C 385.041 25.610,383.517 25.008,377.149 25.003 L 373.216 25.000 373.108 23.725 C 373.049 23.024,373.001 20.980,373.001 19.183 L 373.003 15.917 372.331 14.583 C 371.687 13.304,370.103 11.333,369.720 11.333 C 369.618 11.333,369.498 11.235,369.452 11.115 C 369.406 10.995,369.041 10.800,368.642 10.681 C 368.243 10.563,367.811 10.380,367.683 10.274 C 367.455 10.088,342.727 9.945,341.085 10.120 M365.104 17.555 C 365.116 17.571,365.161 19.252,365.204 21.292 L 365.283 25.000 354.058 25.000 L 342.833 25.000 342.833 21.208 L 342.833 17.417 353.958 17.472 C 360.076 17.502,365.092 17.539,365.104 17.555 " stroke="none" fill="#04cbfc" fill-rule="evenodd"></path><path id="path1" d="M280.917 25.240 C 280.458 25.326,280.046 25.446,280.000 25.506 C 279.954 25.567,279.820 25.648,279.701 25.686 C 279.526 25.742,279.488 29.930,279.496 47.904 L 279.507 70.054 280.002 70.527 C 280.274 70.787,280.613 71.000,280.754 71.000 C 280.895 71.000,281.052 71.108,281.102 71.240 C 281.186 71.457,282.070 71.776,282.375 71.698 C 282.444 71.681,282.500 71.744,282.500 71.837 C 282.500 72.080,283.715 72.504,284.500 72.535 C 284.637 72.540,284.862 72.638,285.000 72.754 C 285.332 73.032,286.085 73.172,288.583 73.421 C 289.473 73.509,295.074 73.507,295.917 73.417 C 296.646 73.340,297.562 73.204,298.083 73.095 C 298.267 73.057,298.477 73.020,298.552 73.013 C 298.626 73.006,298.644 72.932,298.592 72.848 C 298.541 72.765,298.818 72.638,299.208 72.566 C 299.598 72.495,299.973 72.423,300.042 72.406 C 300.110 72.389,300.246 72.366,300.343 72.354 C 300.440 72.343,300.466 72.247,300.401 72.141 C 300.332 72.030,300.355 71.993,300.454 72.055 C 300.751 72.238,303.221 70.723,303.057 70.458 C 302.997 70.361,303.022 70.327,303.112 70.383 C 303.262 70.476,304.609 69.267,305.419 68.312 C 306.407 67.149,307.216 65.715,307.044 65.436 C 306.991 65.351,307.029 65.332,307.127 65.392 C 307.284 65.489,307.639 64.752,307.678 64.250 C 307.685 64.158,307.790 63.971,307.911 63.833 C 308.124 63.592,308.600 61.734,308.524 61.439 C 308.504 61.360,308.602 61.118,308.744 60.903 C 308.885 60.688,308.999 60.453,308.997 60.381 C 308.996 60.309,308.922 60.362,308.833 60.500 C 308.703 60.701,308.671 60.675,308.669 60.365 C 308.668 60.154,308.733 60.021,308.814 60.072 C 308.896 60.122,309.001 60.014,309.049 59.832 C 309.096 59.649,309.067 59.458,308.984 59.407 C 308.897 59.353,308.916 59.158,309.028 58.948 C 309.135 58.748,309.210 58.565,309.195 58.542 C 309.179 58.519,309.170 58.481,309.173 58.458 C 309.214 58.194,309.135 51.223,309.085 50.667 C 309.048 50.254,309.013 49.767,309.007 49.583 C 308.997 49.306,308.968 49.292,308.833 49.500 C 308.703 49.701,308.671 49.675,308.669 49.365 C 308.667 49.103,308.733 49.019,308.875 49.102 C 308.990 49.169,308.962 49.080,308.813 48.904 C 308.562 48.606,308.394 47.982,308.236 46.750 C 308.201 46.475,308.062 46.170,307.928 46.071 C 307.794 45.973,307.649 45.698,307.606 45.461 C 307.502 44.888,307.196 44.333,306.984 44.333 C 306.890 44.333,306.857 44.264,306.909 44.178 C 306.962 44.093,306.642 43.587,306.197 43.053 C 305.478 42.189,305.090 41.817,303.709 40.671 C 303.504 40.500,303.110 40.311,302.834 40.250 C 302.559 40.190,302.333 40.076,302.333 39.998 C 302.333 39.878,301.929 39.680,301.458 39.571 C 301.390 39.555,301.277 39.524,301.208 39.502 C 300.959 39.422,300.742 39.383,300.333 39.347 C 299.945 39.312,299.939 39.300,300.250 39.158 C 300.509 39.041,300.434 39.013,299.912 39.036 C 299.543 39.052,299.130 38.997,298.995 38.914 C 298.861 38.830,298.546 38.784,298.296 38.810 C 298.045 38.836,297.756 38.805,297.651 38.741 C 297.203 38.463,292.591 38.695,291.897 39.029 C 290.887 39.517,290.920 39.733,290.885 32.414 C 290.854 25.808,290.851 25.750,290.508 25.696 C 290.317 25.667,290.205 25.573,290.257 25.488 C 290.310 25.403,290.330 25.330,290.302 25.326 C 288.566 25.095,282.011 25.034,280.917 25.240 M150.250 25.454 C 150.067 25.499,149.836 25.601,149.738 25.681 C 149.639 25.760,149.302 25.827,148.988 25.829 C 148.674 25.831,148.229 25.864,148.000 25.902 C 147.771 25.941,147.527 25.978,147.458 25.986 C 147.238 26.011,147.305 72.796,147.526 72.933 C 147.645 73.006,147.673 72.978,147.599 72.859 C 147.530 72.747,147.583 72.667,147.726 72.667 C 147.862 72.667,147.998 72.744,148.029 72.838 C 148.061 72.933,148.423 73.013,148.835 73.016 C 149.247 73.019,149.808 73.023,150.083 73.025 C 150.358 73.027,152.046 73.058,153.833 73.093 C 157.180 73.158,158.728 73.067,158.570 72.812 C 158.521 72.732,158.639 72.667,158.833 72.667 C 159.058 72.667,159.143 72.737,159.067 72.859 C 158.995 72.976,159.022 73.006,159.134 72.937 C 159.235 72.874,159.277 72.713,159.225 72.578 C 159.173 72.443,159.214 72.333,159.316 72.333 C 159.521 72.333,159.569 26.620,159.363 26.167 C 159.242 25.899,158.846 25.822,157.694 25.839 C 157.296 25.845,156.884 25.782,156.777 25.699 C 156.489 25.473,155.463 25.304,155.585 25.503 C 155.650 25.608,154.778 25.667,153.167 25.667 C 151.529 25.667,150.683 25.608,150.750 25.500 C 150.858 25.325,150.796 25.320,150.250 25.454 M14.794 25.618 C 15.001 25.658,15.301 25.656,15.460 25.615 C 15.620 25.573,15.450 25.540,15.083 25.542 C 14.717 25.544,14.586 25.578,14.794 25.618 M16.500 25.675 C 16.677 25.795,16.348 25.831,15.375 25.797 C 14.618 25.771,13.981 25.800,13.958 25.861 C 13.935 25.922,13.554 26.009,13.110 26.054 C 11.512 26.218,11.667 23.731,11.667 49.319 L 11.667 71.818 12.058 72.209 C 12.273 72.424,12.534 72.572,12.638 72.537 C 12.742 72.503,13.234 72.593,13.731 72.737 C 14.714 73.023,23.696 73.114,22.833 72.829 C 22.453 72.704,22.468 72.692,23.000 72.691 C 23.321 72.691,23.861 72.619,24.200 72.531 C 24.539 72.444,24.856 72.412,24.904 72.460 C 25.153 72.708,25.205 71.355,25.227 64.207 L 25.250 56.417 26.833 56.403 C 27.704 56.396,29.879 56.358,31.667 56.320 L 34.917 56.250 34.913 59.167 C 34.910 60.771,34.873 64.258,34.829 66.917 L 34.750 71.750 35.183 72.175 C 35.421 72.409,35.701 72.572,35.804 72.537 C 35.908 72.503,36.400 72.593,36.897 72.737 C 37.881 73.023,46.863 73.114,46.000 72.829 C 45.616 72.702,45.629 72.691,46.167 72.678 C 47.124 72.656,48.162 72.475,48.263 72.313 C 48.587 71.788,48.330 26.772,48.001 26.465 C 47.693 26.178,47.406 26.101,45.917 25.906 C 45.241 25.818,38.065 25.838,37.333 25.931 C 37.012 25.971,36.525 26.032,36.250 26.065 C 35.975 26.098,35.769 26.209,35.792 26.312 C 35.815 26.416,35.716 26.500,35.573 26.500 C 35.420 26.500,35.362 26.422,35.433 26.308 C 35.507 26.187,35.478 26.160,35.356 26.236 C 35.249 26.302,35.201 26.420,35.249 26.498 C 35.297 26.576,35.224 26.752,35.086 26.890 C 34.873 27.104,34.830 28.289,34.793 35.111 L 34.750 43.083 30.167 43.128 C 25.951 43.169,25.566 43.149,25.368 42.879 C 25.199 42.647,25.157 40.894,25.173 34.667 C 25.195 25.779,25.224 26.063,24.292 26.158 C 24.131 26.174,24.000 26.110,24.000 26.016 C 24.000 25.921,23.892 25.885,23.760 25.936 C 23.627 25.987,22.944 25.909,22.242 25.764 C 20.762 25.458,16.073 25.385,16.500 25.675 M40.714 25.623 C 41.245 25.657,42.070 25.656,42.548 25.623 C 43.026 25.589,42.592 25.562,41.583 25.562 C 40.575 25.563,40.184 25.590,40.714 25.623 M203.667 25.675 C 203.844 25.795,203.514 25.831,202.541 25.797 C 201.785 25.771,201.166 25.798,201.166 25.856 C 201.166 25.914,200.750 26.014,200.240 26.077 C 199.587 26.159,199.287 26.276,199.228 26.472 C 199.181 26.625,199.072 26.881,198.987 27.041 C 198.818 27.357,198.770 71.319,198.938 71.953 C 199.065 72.432,199.854 72.682,201.250 72.683 C 201.679 72.684,201.703 72.705,201.417 72.830 C 201.215 72.919,202.895 72.977,205.667 72.977 C 208.438 72.977,210.118 72.919,209.917 72.830 C 209.631 72.705,209.654 72.684,210.083 72.683 C 210.543 72.683,211.637 72.563,211.833 72.491 C 211.879 72.474,211.975 72.470,212.046 72.482 C 212.330 72.528,212.362 71.738,212.389 64.218 L 212.417 56.417 217.208 56.372 L 222.000 56.328 222.007 61.456 C 222.011 64.276,222.008 67.794,222.000 69.273 C 221.986 71.943,222.088 72.459,222.637 72.511 C 222.699 72.516,223.012 72.557,223.333 72.602 C 223.654 72.646,224.179 72.684,224.500 72.687 C 225.034 72.691,225.048 72.703,224.667 72.829 C 224.427 72.908,226.193 72.969,228.833 72.972 C 231.601 72.975,233.285 72.919,233.083 72.830 C 232.797 72.705,232.821 72.684,233.250 72.683 C 233.734 72.683,234.874 72.554,234.958 72.490 C 234.981 72.472,235.069 72.449,235.153 72.438 C 235.237 72.426,235.353 72.369,235.411 72.312 C 235.469 72.254,235.514 61.982,235.511 49.486 C 235.506 24.116,235.606 26.221,234.397 26.081 C 234.133 26.050,233.579 25.986,233.167 25.937 C 232.754 25.889,230.804 25.844,228.833 25.839 C 225.668 25.831,224.739 25.873,223.417 26.085 C 223.233 26.115,222.992 26.145,222.879 26.153 C 222.151 26.202,222.088 26.851,222.000 35.167 L 221.917 43.083 217.333 43.128 C 213.138 43.169,212.732 43.148,212.538 42.882 C 212.372 42.656,212.328 40.843,212.338 34.666 C 212.353 25.748,212.386 26.064,211.458 26.158 C 211.298 26.174,211.167 26.115,211.167 26.026 C 211.167 25.937,211.033 25.899,210.870 25.942 C 210.707 25.985,210.013 25.903,209.328 25.760 C 207.881 25.458,203.245 25.388,203.667 25.675 M227.965 25.624 C 228.541 25.656,229.441 25.656,229.965 25.623 C 230.488 25.590,230.017 25.563,228.917 25.564 C 227.817 25.564,227.388 25.591,227.965 25.624 M129.083 32.000 C 129.551 32.119,128.649 32.208,126.640 32.241 C 126.397 32.245,126.233 32.305,126.275 32.374 C 126.318 32.443,126.201 32.500,126.016 32.500 C 125.830 32.500,125.608 32.632,125.522 32.792 C 125.334 33.144,125.197 38.167,125.375 38.167 C 125.444 38.167,125.500 38.429,125.500 38.750 C 125.500 39.315,125.480 39.333,124.875 39.322 C 124.355 39.312,124.306 39.284,124.583 39.153 C 124.850 39.027,124.816 39.013,124.417 39.085 C 124.142 39.134,123.429 39.215,122.833 39.264 C 121.272 39.392,121.056 39.456,121.058 39.788 C 121.064 40.868,120.971 41.404,120.833 41.083 C 120.755 40.900,120.685 40.838,120.678 40.945 C 120.672 41.052,120.616 41.270,120.555 41.430 C 120.476 41.636,120.504 41.684,120.650 41.593 C 120.810 41.495,120.846 41.755,120.810 42.721 C 120.785 43.412,120.703 43.939,120.628 43.893 C 120.472 43.796,120.505 44.834,120.667 45.083 C 120.726 45.175,120.784 45.437,120.796 45.665 C 120.814 45.985,120.783 46.023,120.660 45.831 C 120.556 45.667,120.538 45.865,120.609 46.417 C 120.849 48.288,121.562 48.660,124.625 48.510 L 125.500 48.467 125.488 50.442 C 125.482 51.528,125.426 52.288,125.363 52.131 C 125.301 51.973,125.274 56.510,125.304 62.212 C 125.363 73.538,125.320 73.098,126.353 72.933 C 126.774 72.865,126.995 72.900,127.042 73.042 C 127.156 73.384,136.550 73.426,136.890 73.086 C 137.029 72.947,137.223 72.833,137.321 72.833 C 137.420 72.833,137.500 72.754,137.500 72.657 C 137.500 72.560,137.575 72.526,137.666 72.583 C 137.774 72.650,137.846 68.561,137.874 60.634 L 137.917 48.583 140.354 48.562 C 142.845 48.540,143.463 48.411,143.286 47.949 C 143.231 47.807,143.284 47.610,143.403 47.512 C 143.753 47.221,143.774 40.798,143.426 40.450 C 143.123 40.147,143.069 39.586,143.359 39.766 C 143.479 39.840,143.506 39.812,143.431 39.690 C 143.365 39.582,143.240 39.538,143.155 39.590 C 143.070 39.643,143.000 39.614,143.000 39.527 C 143.000 39.438,142.058 39.328,140.875 39.278 C 139.706 39.230,138.487 39.149,138.167 39.099 C 137.681 39.023,137.653 39.033,138.000 39.160 C 138.336 39.282,138.256 39.305,137.583 39.281 L 136.750 39.250 136.714 38.417 C 136.687 37.774,136.716 37.660,136.842 37.917 C 136.973 38.186,136.986 38.154,136.908 37.750 C 136.854 37.475,136.769 36.275,136.718 35.083 C 136.609 32.539,136.484 32.276,135.354 32.203 C 134.953 32.177,134.489 32.083,134.323 31.995 C 134.158 31.906,132.798 31.842,131.303 31.853 C 129.686 31.865,128.786 31.924,129.083 32.000 M105.708 38.448 C 105.869 38.490,106.131 38.490,106.292 38.448 C 106.452 38.406,106.321 38.372,106.000 38.372 C 105.679 38.372,105.548 38.406,105.708 38.448 M179.625 38.454 C 179.923 38.491,180.410 38.491,180.708 38.454 C 181.006 38.417,180.762 38.387,180.167 38.387 C 179.571 38.387,179.327 38.417,179.625 38.454 M295.208 38.453 C 295.460 38.491,295.873 38.491,296.125 38.453 C 296.377 38.415,296.171 38.383,295.667 38.383 C 295.162 38.383,294.956 38.415,295.208 38.453 M101.951 38.717 C 101.752 38.791,101.461 38.818,101.305 38.778 C 101.149 38.737,100.872 38.809,100.688 38.937 C 100.471 39.089,100.318 39.111,100.249 38.999 C 100.191 38.905,100.073 38.872,99.986 38.925 C 99.899 38.979,99.871 39.093,99.924 39.178 C 100.007 39.313,99.538 39.403,98.875 39.378 C 98.760 39.374,98.667 39.445,98.667 39.536 C 98.667 39.628,98.557 39.660,98.422 39.608 C 98.287 39.557,98.133 39.586,98.079 39.674 C 98.025 39.762,97.835 39.833,97.657 39.833 C 97.479 39.833,97.333 39.908,97.333 40.000 C 97.333 40.092,97.221 40.167,97.083 40.167 C 96.946 40.167,96.833 40.254,96.833 40.361 C 96.833 40.468,96.786 40.508,96.728 40.450 C 96.358 40.080,93.351 42.903,93.138 43.819 C 93.108 43.949,92.943 44.202,92.772 44.381 C 92.544 44.619,92.514 44.739,92.661 44.830 C 92.805 44.919,92.785 44.983,92.587 45.059 C 92.436 45.117,92.359 45.240,92.416 45.332 C 92.473 45.424,92.462 45.594,92.391 45.708 C 92.246 45.943,92.245 45.951,92.166 47.667 L 92.109 48.917 92.000 47.833 C 91.891 46.755,91.891 46.757,91.879 48.250 C 91.871 49.221,91.914 49.603,92.000 49.333 C 92.101 49.019,92.133 49.142,92.130 49.833 C 92.128 50.584,92.104 50.660,92.000 50.250 C 91.875 49.760,91.872 49.759,91.853 50.188 C 91.842 50.429,91.946 50.720,92.084 50.834 C 92.222 50.949,92.328 51.239,92.319 51.480 C 92.295 52.112,92.460 52.705,92.704 52.860 C 92.864 52.961,92.866 52.996,92.714 52.997 C 92.602 52.999,92.553 53.112,92.606 53.249 C 92.659 53.386,92.781 53.449,92.879 53.388 C 92.989 53.320,93.018 53.380,92.954 53.545 C 92.898 53.692,92.926 53.837,93.017 53.867 C 93.107 53.897,93.193 54.081,93.208 54.276 C 93.226 54.507,93.317 54.599,93.470 54.540 C 93.644 54.473,93.677 54.539,93.596 54.794 C 93.533 54.993,93.570 55.190,93.686 55.262 C 93.820 55.345,93.841 55.314,93.750 55.167 C 93.658 55.018,93.680 54.989,93.819 55.074 C 93.931 55.144,93.982 55.308,93.931 55.439 C 93.874 55.587,93.989 55.734,94.234 55.827 C 94.451 55.910,94.731 56.208,94.856 56.491 C 94.981 56.773,95.214 57.046,95.375 57.097 C 95.535 57.147,95.667 57.272,95.667 57.372 C 95.667 57.473,95.708 57.515,95.757 57.465 C 95.807 57.415,96.062 57.571,96.322 57.812 C 97.205 58.628,98.625 59.476,99.333 59.610 C 99.562 59.653,99.809 59.796,99.883 59.927 C 99.956 60.059,100.107 60.166,100.217 60.164 C 100.339 60.163,100.320 60.099,100.167 60.000 C 99.682 59.687,100.213 59.838,100.846 60.194 C 101.198 60.392,101.452 60.610,101.410 60.678 C 101.367 60.746,101.464 60.768,101.625 60.726 C 102.313 60.546,104.340 62.349,103.820 62.678 C 103.654 62.784,103.645 62.829,103.792 62.831 C 104.160 62.835,104.014 63.465,103.561 63.821 C 103.073 64.205,102.402 64.301,102.602 63.958 C 102.669 63.844,102.574 63.881,102.391 64.042 C 101.982 64.399,101.237 64.423,101.106 64.083 C 101.054 63.946,100.914 63.834,100.797 63.836 C 100.648 63.838,100.659 63.887,100.833 64.000 C 101.040 64.134,101.026 64.162,100.750 64.162 C 99.896 64.164,99.151 63.948,99.237 63.723 C 99.307 63.543,99.256 63.530,99.006 63.663 C 98.824 63.761,98.647 63.770,98.595 63.686 C 98.544 63.604,98.296 63.489,98.043 63.430 C 97.108 63.212,94.470 61.789,94.699 61.626 C 94.852 61.517,94.809 61.495,94.552 61.550 C 94.331 61.599,94.152 61.536,94.096 61.390 C 93.991 61.117,92.550 61.117,92.381 61.391 C 92.323 61.485,92.371 61.497,92.496 61.419 C 92.639 61.330,92.682 61.363,92.626 61.518 C 92.580 61.646,92.452 61.729,92.342 61.704 C 92.232 61.679,92.186 61.730,92.240 61.817 C 92.381 62.046,91.985 62.833,91.728 62.833 C 91.609 62.833,91.551 62.938,91.600 63.066 C 91.649 63.194,91.515 63.468,91.303 63.674 C 91.091 63.880,91.010 63.996,91.125 63.931 C 91.253 63.859,91.333 63.914,91.333 64.073 C 91.333 64.216,91.249 64.315,91.145 64.292 C 91.042 64.269,90.939 64.400,90.917 64.583 C 90.894 64.767,90.791 65.554,90.687 66.333 C 90.528 67.519,90.523 68.423,90.674 68.833 C 90.691 68.879,90.717 68.992,90.731 69.083 C 90.813 69.611,91.047 70.027,91.160 69.844 C 91.241 69.713,91.354 69.813,91.487 70.135 C 91.693 70.634,93.035 71.628,93.664 71.750 C 93.852 71.786,94.122 71.932,94.265 72.074 C 94.407 72.217,94.631 72.343,94.762 72.354 C 94.996 72.375,95.211 72.419,95.458 72.498 C 95.723 72.583,95.934 72.617,96.417 72.653 C 96.838 72.684,96.865 72.710,96.588 72.819 C 96.291 72.934,96.303 72.955,96.704 73.032 C 96.949 73.079,97.231 73.035,97.332 72.935 C 97.463 72.803,97.551 72.813,97.648 72.969 C 97.772 73.171,98.243 73.276,99.667 73.417 C 100.387 73.489,105.867 73.479,106.667 73.405 C 108.597 73.225,109.529 73.015,109.391 72.791 C 109.320 72.676,109.378 72.648,109.551 72.714 C 109.700 72.772,109.868 72.746,109.923 72.657 C 109.978 72.568,110.088 72.535,110.167 72.583 C 110.246 72.632,110.357 72.596,110.415 72.503 C 110.473 72.410,110.670 72.333,110.853 72.333 C 111.036 72.333,111.144 72.265,111.093 72.182 C 111.042 72.099,111.161 72.073,111.359 72.125 C 111.606 72.190,111.681 72.158,111.600 72.026 C 111.534 71.920,111.560 71.824,111.657 71.813 C 111.754 71.801,111.908 71.773,112.000 71.750 C 112.092 71.727,112.242 71.699,112.333 71.688 C 112.425 71.676,112.500 71.554,112.500 71.417 C 112.500 71.192,112.606 71.136,112.943 71.182 C 113.004 71.190,113.120 71.077,113.202 70.932 C 113.283 70.786,113.477 70.666,113.633 70.664 C 113.877 70.662,113.882 70.639,113.667 70.500 C 113.463 70.368,113.484 70.338,113.780 70.336 C 114.157 70.333,114.741 69.721,114.928 69.131 C 115.010 68.871,115.069 68.842,115.173 69.011 C 115.272 69.171,115.342 69.107,115.423 68.783 C 115.485 68.536,115.603 68.333,115.685 68.333 C 115.766 68.333,115.824 68.277,115.814 68.208 C 115.761 67.876,115.850 67.657,116.000 67.750 C 116.092 67.807,116.167 67.774,116.167 67.677 C 116.167 67.358,116.197 67.254,116.391 66.917 C 116.593 66.564,116.610 66.494,116.659 65.833 C 116.688 65.448,116.701 65.442,116.833 65.750 L 116.977 66.083 117.010 65.750 C 117.044 65.402,117.064 65.225,117.254 63.583 C 117.410 62.238,117.347 59.495,117.149 59.000 C 117.088 58.847,117.039 58.586,117.008 58.250 L 116.977 57.917 116.833 58.250 C 116.697 58.568,116.609 58.266,116.681 57.727 C 116.689 57.668,116.609 57.567,116.503 57.502 C 116.332 57.396,116.223 57.089,116.177 56.583 C 116.168 56.492,116.096 56.519,116.017 56.645 C 115.911 56.812,115.819 56.711,115.673 56.268 C 115.563 55.936,115.410 55.703,115.333 55.750 C 115.255 55.798,115.031 55.611,114.835 55.335 C 114.638 55.059,114.373 54.833,114.245 54.833 C 114.116 54.833,113.931 54.683,113.833 54.500 C 113.735 54.317,113.545 54.167,113.411 54.167 C 113.277 54.167,113.167 54.092,113.167 54.000 C 113.167 53.908,113.012 53.833,112.823 53.833 C 112.635 53.833,112.520 53.769,112.569 53.690 C 112.663 53.538,111.356 52.884,111.116 52.962 C 111.039 52.988,111.017 52.940,111.069 52.857 C 111.161 52.707,110.259 52.244,110.098 52.358 C 110.052 52.390,109.893 52.267,109.745 52.083 C 109.597 51.900,109.523 51.844,109.581 51.958 C 109.710 52.213,109.582 52.222,109.151 51.992 C 108.971 51.895,108.867 51.746,108.921 51.660 C 108.974 51.574,108.910 51.545,108.778 51.596 C 108.222 51.809,105.239 50.153,105.404 49.722 C 105.455 49.589,105.423 49.528,105.331 49.585 C 105.145 49.700,105.135 49.668,105.080 48.750 C 105.039 48.073,105.251 47.596,105.519 47.762 C 105.600 47.812,105.667 47.740,105.667 47.602 C 105.667 47.417,105.838 47.358,106.322 47.377 C 106.682 47.391,106.938 47.465,106.892 47.541 C 106.845 47.616,107.019 47.638,107.278 47.588 C 108.704 47.317,109.000 47.299,109.000 47.479 C 109.000 47.583,109.264 47.667,109.593 47.667 C 109.919 47.667,110.147 47.731,110.098 47.809 C 110.050 47.888,110.198 47.916,110.429 47.872 C 110.659 47.828,110.835 47.857,110.821 47.938 C 110.762 48.258,110.846 48.405,110.974 48.203 C 111.082 48.032,111.206 48.041,111.596 48.244 C 111.864 48.384,112.169 48.498,112.274 48.499 C 112.379 48.500,112.508 48.612,112.560 48.750 C 112.697 49.105,113.120 49.059,113.549 48.642 C 113.751 48.445,113.804 48.338,113.667 48.404 C 113.529 48.470,113.698 48.275,114.042 47.970 C 114.385 47.666,114.667 47.285,114.667 47.125 C 114.667 46.965,114.733 46.833,114.815 46.833 C 114.896 46.833,114.953 46.740,114.940 46.625 C 114.927 46.510,114.992 46.393,115.083 46.364 C 115.305 46.294,115.659 45.622,115.559 45.460 C 115.516 45.391,115.557 45.333,115.652 45.333 C 115.746 45.333,115.780 45.221,115.727 45.083 C 115.674 44.946,115.712 44.833,115.810 44.833 C 115.909 44.833,115.945 44.718,115.891 44.577 C 115.837 44.435,115.858 44.332,115.938 44.346 C 116.282 44.409,116.398 44.316,116.167 44.161 C 115.945 44.013,115.945 43.977,116.168 43.844 C 116.638 43.565,116.458 41.579,115.914 41.036 C 115.400 40.521,114.330 39.982,114.102 40.123 C 114.018 40.175,113.998 40.138,114.059 40.039 C 114.154 39.886,113.714 39.709,112.917 39.578 C 112.825 39.563,112.675 39.531,112.583 39.508 C 112.302 39.435,111.941 39.392,111.365 39.362 C 111.046 39.345,110.857 39.263,110.917 39.167 C 110.973 39.075,110.921 38.996,110.802 38.990 C 110.682 38.985,110.283 38.948,109.917 38.908 C 108.239 38.725,107.242 38.670,104.866 38.628 C 103.463 38.603,102.151 38.644,101.951 38.717 M178.266 38.623 C 178.245 38.644,177.932 38.692,177.572 38.730 C 176.335 38.858,175.500 39.043,175.500 39.188 C 175.500 39.268,175.421 39.333,175.323 39.333 C 175.226 39.333,175.202 39.240,175.269 39.125 C 175.336 39.010,175.246 39.039,175.070 39.189 C 174.748 39.462,174.355 39.618,173.638 39.755 C 173.425 39.796,173.156 39.957,173.042 40.113 C 172.927 40.269,172.833 40.343,172.833 40.278 C 172.833 40.157,171.935 40.575,171.599 40.853 C 171.499 40.935,171.023 41.309,170.541 41.683 C 170.059 42.057,169.715 42.443,169.775 42.541 C 169.835 42.638,169.808 42.671,169.715 42.613 C 169.532 42.500,168.941 43.052,169.087 43.198 C 169.135 43.246,169.046 43.390,168.889 43.518 C 168.641 43.719,168.622 43.717,168.745 43.500 C 168.823 43.362,168.826 43.305,168.752 43.372 C 168.678 43.439,168.534 43.656,168.434 43.853 C 168.333 44.051,168.175 44.208,168.083 44.201 C 167.938 44.192,167.615 44.596,167.579 44.833 C 167.512 45.282,167.259 45.667,167.030 45.669 C 166.788 45.671,166.784 45.694,167.000 45.833 C 167.212 45.970,167.204 45.995,166.948 45.997 C 166.783 45.999,166.693 46.075,166.750 46.167 C 166.807 46.258,166.776 46.333,166.682 46.333 C 166.588 46.333,166.548 46.431,166.594 46.551 C 166.640 46.671,166.494 46.982,166.270 47.243 C 166.046 47.503,165.898 47.808,165.941 47.920 C 165.984 48.032,165.902 48.168,165.760 48.223 C 165.617 48.278,165.501 48.419,165.503 48.536 C 165.504 48.688,165.557 48.678,165.685 48.500 C 165.835 48.292,165.848 48.301,165.766 48.555 C 165.711 48.723,165.667 48.967,165.667 49.097 C 165.667 49.227,165.573 49.315,165.458 49.292 C 165.330 49.266,165.270 49.394,165.302 49.625 C 165.331 49.831,165.277 50.000,165.182 50.000 C 165.088 50.000,165.055 50.115,165.109 50.256 C 165.163 50.397,165.095 50.641,164.957 50.798 C 164.680 51.115,164.479 52.167,164.696 52.167 C 164.900 52.167,164.862 52.738,164.643 52.957 C 164.199 53.401,164.466 61.335,164.942 61.861 C 165.088 62.022,165.164 62.267,165.111 62.405 C 165.058 62.543,165.086 62.700,165.174 62.754 C 165.262 62.809,165.333 63.030,165.333 63.246 C 165.333 63.812,165.507 64.182,165.712 64.055 C 165.824 63.986,165.850 64.049,165.784 64.223 C 165.725 64.375,165.758 64.500,165.856 64.500 C 165.955 64.500,165.992 64.612,165.940 64.750 C 165.887 64.887,165.921 65.000,166.015 65.000 C 166.109 65.000,166.140 65.076,166.083 65.168 C 166.026 65.260,166.093 65.380,166.233 65.433 C 166.463 65.521,166.712 65.984,166.763 66.417 C 166.805 66.780,167.043 67.160,167.176 67.078 C 167.348 66.972,167.698 67.580,167.550 67.728 C 167.492 67.786,167.543 67.833,167.663 67.833 C 167.916 67.833,170.167 70.108,170.167 70.364 C 170.167 70.458,170.296 70.486,170.453 70.426 C 170.611 70.365,170.690 70.365,170.630 70.426 C 170.492 70.564,170.872 70.992,171.042 70.889 C 171.110 70.848,171.167 70.893,171.167 70.990 C 171.167 71.087,171.223 71.158,171.292 71.147 C 171.723 71.079,171.914 71.174,171.667 71.333 C 171.493 71.446,171.480 71.502,171.625 71.518 C 171.981 71.558,172.073 71.589,172.436 71.792 C 172.631 71.900,172.849 71.935,172.921 71.869 C 172.994 71.804,173.003 71.838,172.941 71.946 C 172.810 72.174,173.132 72.314,174.391 72.576 C 174.790 72.659,174.955 72.758,174.828 72.837 C 174.509 73.034,177.815 73.565,179.250 73.547 C 179.750 73.540,179.833 73.572,179.583 73.674 C 179.099 73.872,181.273 73.871,182.000 73.673 C 182.321 73.586,183.071 73.473,183.667 73.421 C 185.802 73.238,186.232 73.164,186.362 72.959 C 186.454 72.815,186.496 72.810,186.497 72.943 C 186.499 73.053,186.642 73.098,186.831 73.049 C 187.014 73.001,187.122 72.896,187.072 72.814 C 187.021 72.733,187.102 72.667,187.250 72.667 C 187.420 72.667,187.474 72.744,187.398 72.875 C 187.331 72.990,187.434 72.945,187.628 72.775 C 187.821 72.606,188.059 72.517,188.156 72.577 C 188.254 72.637,188.333 72.604,188.333 72.503 C 188.333 72.401,188.427 72.338,188.542 72.361 C 188.910 72.435,189.684 72.162,189.580 71.995 C 189.493 71.854,189.836 71.755,190.208 71.814 C 190.277 71.824,190.333 71.754,190.333 71.657 C 190.333 71.560,190.409 71.527,190.501 71.584 C 190.593 71.641,190.711 71.577,190.763 71.442 C 190.815 71.307,191.030 71.153,191.242 71.100 C 191.575 71.017,192.192 70.329,192.267 69.958 C 192.280 69.890,192.305 69.796,192.322 69.750 C 192.471 69.335,192.332 67.435,192.144 67.313 C 191.960 67.195,191.958 67.140,192.131 67.028 C 192.368 66.875,192.172 66.126,191.841 65.921 C 191.742 65.860,191.701 65.746,191.750 65.667 C 191.799 65.588,191.761 65.475,191.667 65.417 C 191.572 65.358,191.538 65.240,191.590 65.155 C 191.643 65.070,191.602 65.000,191.500 65.000 C 191.398 65.000,191.356 64.932,191.407 64.848 C 191.459 64.765,191.453 64.571,191.394 64.418 C 191.313 64.207,191.255 64.190,191.157 64.349 C 191.074 64.483,190.941 64.262,190.789 63.738 C 190.535 62.863,190.095 62.596,189.646 63.044 C 189.354 63.335,188.341 63.691,188.148 63.572 C 188.066 63.521,188.000 63.597,188.000 63.740 C 188.000 64.049,187.564 64.090,187.444 63.792 C 187.390 63.660,187.355 63.683,187.346 63.856 C 187.332 64.153,185.351 64.634,185.011 64.424 C 184.913 64.363,184.833 64.425,184.833 64.560 C 184.833 65.093,179.738 65.157,178.794 64.636 C 178.543 64.497,178.382 64.340,178.436 64.287 C 178.489 64.233,178.393 64.226,178.221 64.271 C 177.833 64.372,177.084 63.621,177.220 63.267 C 177.282 63.106,177.239 63.047,177.098 63.101 C 176.875 63.186,176.667 62.527,176.667 61.735 L 176.667 61.345 179.625 61.336 C 183.239 61.326,184.698 61.219,184.862 60.954 C 184.950 60.812,185.038 60.805,185.164 60.930 C 185.261 61.028,185.572 61.074,185.854 61.033 C 186.177 60.985,186.291 60.910,186.162 60.831 C 186.044 60.757,186.336 60.656,186.854 60.590 C 188.273 60.409,191.155 58.885,190.889 58.456 C 190.830 58.360,190.857 58.328,190.949 58.385 C 191.097 58.477,191.763 57.869,191.874 57.541 C 191.898 57.473,191.971 57.435,192.037 57.457 C 192.157 57.497,192.579 56.822,192.530 56.667 C 192.441 56.384,192.714 55.973,192.849 56.186 C 192.953 56.351,192.996 56.285,192.997 55.958 C 192.999 55.706,193.064 55.500,193.141 55.500 C 193.219 55.500,193.289 55.267,193.297 54.983 C 193.305 54.699,193.442 54.323,193.601 54.147 C 194.063 53.637,194.108 47.310,193.648 47.595 C 193.566 47.645,193.500 47.607,193.500 47.510 C 193.500 47.413,193.587 47.333,193.692 47.333 C 193.804 47.333,193.761 47.196,193.592 47.010 C 193.431 46.832,193.288 46.494,193.275 46.260 C 193.261 46.025,193.189 45.834,193.115 45.833 C 193.041 45.833,193.026 45.759,193.083 45.668 C 193.139 45.577,193.108 45.371,193.014 45.210 C 192.880 44.979,192.841 44.970,192.833 45.167 C 192.825 45.364,192.787 45.355,192.653 45.124 C 192.559 44.963,192.528 44.756,192.584 44.665 C 192.640 44.574,192.615 44.500,192.528 44.500 C 192.441 44.500,192.320 44.304,192.260 44.064 C 192.200 43.824,192.106 43.672,192.052 43.726 C 191.998 43.780,191.833 43.583,191.685 43.287 C 191.537 42.992,191.327 42.750,191.217 42.750 C 191.107 42.750,190.919 42.645,190.800 42.517 C 190.620 42.324,190.626 42.308,190.833 42.421 C 190.994 42.509,190.970 42.428,190.766 42.195 C 190.416 41.796,190.246 41.717,190.435 42.042 C 190.502 42.156,190.394 42.107,190.195 41.933 C 189.793 41.580,189.723 41.423,190.042 41.588 C 190.156 41.647,190.065 41.545,189.838 41.361 C 189.611 41.177,189.368 41.062,189.296 41.106 C 189.225 41.150,189.167 41.077,189.167 40.943 C 189.167 40.749,188.503 40.382,188.081 40.341 C 188.036 40.337,187.841 40.174,187.647 39.980 C 187.392 39.725,187.260 39.683,187.170 39.828 C 187.080 39.974,187.019 39.957,186.946 39.767 C 186.888 39.615,186.739 39.547,186.590 39.604 C 186.449 39.658,186.333 39.615,186.333 39.508 C 186.333 39.401,186.254 39.363,186.156 39.423 C 186.059 39.483,185.821 39.394,185.628 39.225 C 185.434 39.055,185.331 39.010,185.398 39.125 C 185.474 39.256,185.420 39.333,185.250 39.333 C 185.102 39.333,185.027 39.258,185.083 39.167 C 185.140 39.075,185.126 38.995,185.052 38.989 C 183.514 38.867,183.014 38.813,182.667 38.733 C 182.266 38.640,178.346 38.542,178.266 38.623 M56.065 39.072 C 56.009 39.216,55.818 39.333,55.639 39.333 C 55.444 39.333,55.359 39.260,55.427 39.149 C 55.490 39.048,55.342 39.096,55.100 39.255 L 54.658 39.544 54.704 51.514 C 54.740 60.817,54.796 63.530,54.958 63.692 C 55.228 63.961,55.242 64.900,54.974 64.734 C 54.854 64.660,54.827 64.688,54.902 64.810 C 54.969 64.918,55.093 64.962,55.178 64.910 C 55.264 64.857,55.333 65.010,55.333 65.250 C 55.333 65.537,55.268 65.646,55.141 65.567 C 55.021 65.493,54.994 65.522,55.069 65.644 C 55.135 65.751,55.260 65.796,55.345 65.743 C 55.430 65.690,55.511 65.858,55.525 66.115 C 55.539 66.373,55.559 66.680,55.569 66.799 C 55.578 66.917,55.688 67.077,55.812 67.153 C 55.994 67.266,55.996 67.307,55.821 67.365 C 55.667 67.417,55.713 67.547,55.983 67.816 C 56.191 68.024,56.321 68.235,56.272 68.284 C 56.223 68.333,56.292 68.483,56.426 68.617 C 56.560 68.751,56.630 68.924,56.582 69.002 C 56.534 69.080,56.645 69.249,56.829 69.379 C 57.014 69.508,57.128 69.650,57.083 69.695 C 56.942 69.835,58.500 71.353,58.675 71.245 C 58.767 71.188,58.821 71.231,58.796 71.340 C 58.771 71.450,58.896 71.563,59.075 71.593 C 59.254 71.623,59.534 71.820,59.696 72.032 C 59.859 72.243,59.994 72.323,59.996 72.208 C 59.999 72.083,60.135 72.135,60.339 72.339 C 60.526 72.526,60.743 72.639,60.821 72.591 C 60.898 72.543,61.051 72.611,61.161 72.743 C 61.653 73.337,66.978 73.765,69.500 73.414 C 71.634 73.117,71.882 73.048,71.725 72.793 C 71.653 72.677,71.710 72.647,71.879 72.712 C 72.025 72.769,72.169 72.746,72.198 72.662 C 72.226 72.578,72.434 72.482,72.658 72.448 C 72.882 72.414,73.095 72.299,73.130 72.192 C 73.166 72.085,73.264 72.040,73.348 72.092 C 73.431 72.144,73.500 72.102,73.500 72.000 C 73.500 71.898,73.575 71.860,73.667 71.917 C 73.758 71.973,73.833 71.936,73.833 71.833 C 73.833 71.731,73.908 71.693,74.000 71.750 C 74.092 71.807,74.167 71.774,74.167 71.677 C 74.167 71.579,74.277 71.500,74.411 71.500 C 74.545 71.500,74.735 71.351,74.832 71.168 C 74.930 70.986,75.064 70.848,75.130 70.861 C 75.352 70.907,75.832 70.633,75.753 70.505 C 75.491 70.082,76.364 69.766,76.676 70.171 C 77.074 70.690,77.092 70.946,76.708 70.645 C 76.445 70.439,76.439 70.445,76.640 70.702 C 76.763 70.859,77.007 71.033,77.182 71.088 C 77.357 71.144,77.500 71.264,77.500 71.354 C 77.500 71.445,77.413 71.466,77.308 71.401 C 77.187 71.326,77.160 71.355,77.236 71.477 C 77.302 71.584,77.421 71.632,77.500 71.583 C 77.579 71.534,77.757 71.656,77.896 71.855 C 78.227 72.328,79.020 72.841,79.224 72.715 C 79.312 72.660,79.334 72.698,79.271 72.799 C 79.156 72.986,80.106 73.330,80.750 73.333 C 80.933 73.335,81.298 73.447,81.561 73.584 C 81.823 73.721,82.123 73.828,82.227 73.822 C 82.331 73.815,82.267 73.745,82.083 73.667 C 81.846 73.565,82.039 73.521,82.750 73.514 C 83.454 73.508,83.676 73.553,83.500 73.667 C 83.362 73.756,83.335 73.829,83.438 73.831 C 83.541 73.832,83.721 73.719,83.837 73.579 C 83.953 73.440,84.081 73.358,84.121 73.399 C 84.263 73.540,85.250 73.026,85.250 72.811 C 85.250 72.691,85.400 72.514,85.583 72.417 C 85.767 72.320,85.940 72.135,85.969 72.006 C 85.997 71.877,86.147 71.668,86.302 71.540 C 86.457 71.413,86.490 71.356,86.375 71.414 C 86.260 71.472,86.167 71.440,86.167 71.343 C 86.167 71.246,86.279 71.167,86.417 71.167 C 86.554 71.167,86.678 71.073,86.692 70.958 C 86.706 70.844,86.733 70.675,86.752 70.583 C 86.770 70.492,86.845 70.092,86.916 69.695 C 86.997 69.248,87.096 69.052,87.176 69.181 C 87.372 69.499,87.553 67.980,87.552 66.026 C 87.552 64.818,87.489 64.263,87.341 64.172 C 87.200 64.084,87.168 63.856,87.242 63.479 C 87.325 63.064,87.308 62.982,87.179 63.167 C 87.014 63.404,86.905 63.111,86.979 62.628 C 87.046 62.194,85.860 61.828,84.369 61.824 L 83.487 61.821 83.532 50.736 C 83.581 38.636,83.637 39.342,82.639 39.336 C 82.394 39.334,82.167 39.252,82.134 39.153 C 82.096 39.037,81.078 38.954,79.246 38.920 C 75.994 38.858,73.303 38.984,73.432 39.191 C 73.480 39.269,73.309 39.332,73.052 39.331 C 72.688 39.329,72.639 39.292,72.833 39.167 C 72.971 39.078,73.001 39.004,72.901 39.003 C 72.184 38.993,72.181 39.032,72.184 49.922 C 72.185 55.602,72.200 60.505,72.218 60.817 C 72.252 61.413,71.386 62.155,70.963 61.894 C 70.855 61.827,70.830 61.859,70.901 61.974 C 70.971 62.088,70.914 62.167,70.760 62.167 C 70.617 62.167,70.500 62.236,70.500 62.320 C 70.500 62.404,70.256 62.522,69.958 62.581 C 69.660 62.639,69.214 62.765,68.966 62.861 C 68.149 63.175,65.913 61.933,66.713 61.609 C 66.829 61.562,66.792 61.521,66.625 61.513 C 66.465 61.506,66.333 61.383,66.333 61.240 C 66.333 61.086,66.412 61.029,66.526 61.099 C 66.646 61.174,66.673 61.145,66.598 61.023 C 66.531 60.916,66.398 60.876,66.302 60.936 C 66.182 61.010,66.143 59.732,66.178 56.814 C 66.206 54.487,66.215 49.648,66.198 46.061 L 66.167 39.538 65.729 39.252 C 65.489 39.094,65.343 39.048,65.406 39.149 C 65.475 39.261,65.382 39.333,65.167 39.333 C 64.973 39.333,64.854 39.269,64.903 39.189 C 65.088 38.889,62.455 38.837,57.667 39.044 C 57.254 39.062,56.748 39.017,56.541 38.944 C 56.266 38.846,56.138 38.880,56.065 39.072 M243.231 39.072 C 243.176 39.216,242.985 39.333,242.806 39.333 C 242.611 39.333,242.526 39.260,242.594 39.149 C 242.657 39.048,242.509 39.096,242.266 39.255 L 241.825 39.544 241.871 51.314 C 241.904 59.916,241.969 63.173,242.111 63.417 C 242.274 63.695,242.590 65.228,242.763 66.583 C 242.786 66.767,242.817 66.917,242.832 66.917 C 242.846 66.917,242.892 67.101,242.933 67.326 C 242.975 67.551,243.100 67.792,243.213 67.862 C 243.325 67.931,243.418 68.047,243.419 68.119 C 243.424 68.453,243.888 69.319,244.019 69.238 C 244.100 69.188,244.167 69.266,244.167 69.411 C 244.167 69.751,245.468 71.167,245.781 71.167 C 245.912 71.167,245.976 71.238,245.922 71.325 C 245.868 71.412,245.976 71.565,246.162 71.664 C 246.348 71.764,246.502 71.786,246.504 71.714 C 246.506 71.642,246.654 71.771,246.833 72.000 C 247.013 72.229,247.161 72.324,247.163 72.210 C 247.166 72.061,247.249 72.073,247.458 72.253 C 247.619 72.390,247.825 72.507,247.917 72.513 C 248.008 72.519,248.200 72.630,248.343 72.759 C 248.486 72.888,248.861 73.031,249.176 73.077 C 249.492 73.123,250.500 73.284,251.417 73.435 C 254.047 73.868,255.221 73.904,256.077 73.577 C 256.486 73.421,256.934 73.336,257.072 73.389 C 257.210 73.442,257.360 73.425,257.405 73.352 C 257.451 73.278,257.729 73.211,258.022 73.203 C 258.316 73.194,258.762 73.035,259.014 72.850 C 259.265 72.664,259.646 72.478,259.860 72.437 C 260.501 72.315,260.837 72.141,260.739 71.983 C 260.656 71.847,260.889 71.763,261.208 71.814 C 261.277 71.824,261.333 71.758,261.333 71.667 C 261.333 71.575,261.443 71.500,261.577 71.500 C 261.712 71.500,261.903 71.348,262.002 71.162 C 262.102 70.976,262.239 70.859,262.308 70.901 C 262.486 71.011,262.917 70.715,262.917 70.483 C 262.917 70.125,263.445 69.913,263.736 70.155 C 264.039 70.406,264.098 70.747,263.808 70.567 C 263.687 70.493,263.660 70.522,263.736 70.644 C 263.802 70.751,263.926 70.796,264.012 70.743 C 264.097 70.690,264.167 70.717,264.167 70.802 C 264.167 71.167,265.498 72.347,266.489 72.861 C 268.102 73.697,272.403 73.709,272.419 72.877 C 272.424 72.618,272.695 72.331,272.845 72.424 C 273.012 72.527,273.412 71.728,273.479 71.157 C 273.491 71.060,273.575 71.027,273.667 71.083 C 273.829 71.183,273.901 70.965,273.846 70.542 C 273.831 70.427,273.895 70.333,273.987 70.333 C 274.080 70.333,274.113 70.221,274.060 70.083 C 274.008 69.946,274.037 69.833,274.126 69.833 C 274.214 69.833,274.259 69.627,274.225 69.375 C 274.174 69.002,274.189 68.978,274.305 69.245 C 274.435 69.546,274.454 69.535,274.533 69.125 C 274.580 68.879,274.554 68.716,274.476 68.765 C 274.268 68.893,274.301 68.266,274.513 68.053 C 274.755 67.812,274.753 64.112,274.511 64.032 C 274.413 63.999,274.333 63.899,274.333 63.810 C 274.333 63.720,274.408 63.693,274.500 63.750 C 274.780 63.923,274.686 63.570,274.333 63.121 C 274.150 62.888,274.000 62.618,274.000 62.521 C 274.000 62.190,273.250 61.938,272.083 61.877 C 271.442 61.844,270.823 61.786,270.710 61.747 C 270.548 61.693,270.493 59.239,270.460 50.547 L 270.417 39.417 269.872 39.364 C 269.572 39.335,269.364 39.252,269.409 39.178 C 269.513 39.010,267.395 38.897,264.583 38.921 C 260.840 38.953,260.226 38.990,260.500 39.167 C 260.692 39.291,260.634 39.328,260.250 39.328 C 259.866 39.328,259.808 39.291,260.000 39.167 C 260.137 39.078,260.168 39.004,260.067 39.003 C 259.332 38.992,259.333 38.978,259.333 50.439 L 259.333 61.269 258.958 61.435 C 258.752 61.526,258.696 61.574,258.833 61.541 C 259.245 61.441,258.825 61.766,257.934 62.236 C 257.484 62.473,256.982 62.667,256.816 62.667 C 256.651 62.667,256.319 62.756,256.079 62.866 C 255.740 63.020,255.570 63.020,255.323 62.866 C 255.148 62.756,254.899 62.667,254.770 62.667 C 254.342 62.667,253.540 61.556,253.363 60.721 C 253.250 60.188,253.238 57.448,253.326 52.583 C 253.400 48.550,253.447 44.913,253.430 44.500 C 253.414 44.087,253.385 42.775,253.366 41.583 C 253.331 39.451,253.324 39.414,252.915 39.224 C 252.687 39.118,252.542 39.099,252.593 39.182 C 252.644 39.265,252.513 39.332,252.302 39.331 C 252.030 39.329,251.982 39.287,252.137 39.189 C 252.599 38.896,250.066 38.849,244.750 39.052 C 244.383 39.066,243.914 39.017,243.708 38.944 C 243.432 38.846,243.305 38.880,243.231 39.072 M181.853 49.206 C 182.754 49.869,183.173 51.239,182.847 52.450 C 182.672 53.099,181.931 53.986,181.731 53.786 C 181.674 53.729,181.516 53.794,181.380 53.929 C 181.182 54.127,180.700 54.167,178.942 54.130 L 176.750 54.083 176.702 52.551 C 176.646 50.736,176.860 50.084,177.735 49.417 C 178.845 48.570,180.850 48.467,181.853 49.206 M295.039 49.473 C 296.512 50.383,297.228 52.691,297.193 56.417 C 297.148 61.189,295.360 63.646,292.217 63.253 C 290.749 63.070,290.833 63.501,290.833 56.192 L 290.833 49.741 291.542 49.412 C 292.534 48.951,294.243 48.981,295.039 49.473 M66.375 58.250 C 66.377 58.617,66.411 58.747,66.451 58.540 C 66.491 58.332,66.490 58.032,66.448 57.873 C 66.406 57.714,66.374 57.883,66.375 58.250 M254.125 73.615 C 253.965 73.657,253.702 73.657,253.542 73.615 C 253.381 73.573,253.512 73.539,253.833 73.539 C 254.154 73.539,254.285 73.573,254.125 73.615 M255.458 73.615 C 255.298 73.657,255.035 73.657,254.875 73.615 C 254.715 73.573,254.846 73.539,255.167 73.539 C 255.487 73.539,255.619 73.573,255.458 73.615 M66.792 73.787 C 67.090 73.824,67.577 73.824,67.875 73.787 C 68.173 73.750,67.929 73.720,67.333 73.720 C 66.737 73.720,66.494 73.750,66.792 73.787 M102.625 73.787 C 102.923 73.824,103.410 73.824,103.708 73.787 C 104.006 73.750,103.763 73.720,103.167 73.720 C 102.571 73.720,102.327 73.750,102.625 73.787 M269.960 73.785 C 270.168 73.824,270.468 73.823,270.627 73.781 C 270.786 73.739,270.617 73.707,270.250 73.709 C 269.883 73.711,269.753 73.745,269.960 73.785 " stroke="none" fill="#040404" fill-rule="evenodd"></path><path id="path2" d="M284.048 25.123 C 284.578 25.157,285.403 25.156,285.881 25.123 C 286.359 25.089,285.925 25.062,284.917 25.062 C 283.908 25.063,283.517 25.090,284.048 25.123 M287.127 25.118 C 287.334 25.158,287.634 25.156,287.794 25.115 C 287.953 25.073,287.783 25.040,287.417 25.042 C 287.050 25.044,286.920 25.078,287.127 25.118 M150.750 25.500 C 150.683 25.608,151.529 25.667,153.167 25.667 C 154.804 25.667,155.650 25.608,155.583 25.500 C 155.523 25.402,154.529 25.333,153.167 25.333 C 151.804 25.333,150.811 25.402,150.750 25.500 M15.667 25.678 C 15.108 25.785,15.117 25.790,15.875 25.811 C 16.654 25.833,16.868 25.768,16.458 25.635 C 16.344 25.597,15.987 25.617,15.667 25.678 M149.167 25.667 L 148.750 25.800 149.198 25.817 C 149.445 25.826,149.693 25.758,149.750 25.667 C 149.867 25.477,149.758 25.477,149.167 25.667 M156.748 25.663 C 156.806 25.757,157.161 25.833,157.538 25.833 C 158.379 25.833,158.315 25.749,157.363 25.603 C 156.888 25.530,156.678 25.550,156.748 25.663 M202.833 25.678 C 202.275 25.785,202.284 25.790,203.042 25.811 C 203.820 25.833,204.035 25.768,203.625 25.635 C 203.510 25.597,203.154 25.617,202.833 25.678 M40.542 25.790 C 41.069 25.823,41.931 25.823,42.458 25.790 C 42.985 25.757,42.554 25.730,41.500 25.730 C 40.446 25.730,40.015 25.757,40.542 25.790 M228.208 25.789 C 228.644 25.824,229.356 25.824,229.792 25.789 C 230.227 25.755,229.871 25.727,229.000 25.727 C 228.129 25.727,227.773 25.755,228.208 25.789 M290.914 32.583 L 290.917 39.083 291.311 39.139 C 291.528 39.170,291.790 39.104,291.894 38.992 C 292.041 38.834,291.963 38.812,291.544 38.890 L 291.004 38.991 290.957 32.537 L 290.911 26.083 290.914 32.583 M198.955 26.601 C 198.888 26.668,198.833 26.837,198.833 26.978 C 198.833 27.165,198.883 27.184,199.019 27.048 C 199.121 26.946,199.175 26.776,199.140 26.671 C 199.105 26.565,199.022 26.534,198.955 26.601 M222.192 26.648 C 222.068 26.726,221.994 26.927,222.026 27.094 C 222.074 27.342,222.121 27.316,222.288 26.949 C 222.515 26.452,222.512 26.445,222.192 26.648 M48.379 27.333 C 48.379 27.746,48.411 27.915,48.451 27.708 C 48.491 27.502,48.491 27.165,48.451 26.958 C 48.411 26.752,48.379 26.921,48.379 27.333 M279.374 48.349 C 279.334 69.930,279.336 70.118,279.667 70.417 C 279.850 70.583,280.000 70.640,280.000 70.544 C 280.000 70.448,279.888 70.326,279.751 70.273 C 279.531 70.189,279.496 67.551,279.458 48.380 L 279.415 26.583 279.374 48.349 M212.410 35.000 C 212.410 39.262,212.432 41.006,212.458 38.875 C 212.485 36.744,212.485 33.256,212.458 31.125 C 212.432 28.994,212.410 30.738,212.410 35.000 M25.243 35.167 C 25.243 39.337,25.265 41.044,25.292 38.958 C 25.318 36.873,25.318 33.460,25.292 31.375 C 25.265 29.290,25.243 30.996,25.243 35.167 M235.581 49.250 C 235.581 60.800,235.601 65.500,235.625 59.695 C 235.649 53.890,235.649 44.440,235.625 38.695 C 235.601 32.950,235.581 37.700,235.581 49.250 M48.407 33.333 C 48.407 36.037,48.430 37.144,48.458 35.792 C 48.486 34.440,48.486 32.227,48.458 30.875 C 48.430 29.523,48.407 30.629,48.407 33.333 M128.000 32.000 C 128.137 32.089,128.550 32.154,128.917 32.144 C 129.559 32.128,129.565 32.123,129.083 32.000 C 128.305 31.802,127.694 31.802,128.000 32.000 M136.822 38.208 C 136.582 39.077,136.770 39.414,137.360 39.178 L 137.750 39.021 137.375 39.011 C 137.039 39.001,136.906 38.760,136.980 38.292 C 136.998 38.181,136.851 38.103,136.822 38.208 M103.964 38.623 C 104.448 38.657,105.198 38.656,105.631 38.622 C 106.063 38.588,105.667 38.560,104.750 38.561 C 103.833 38.561,103.480 38.589,103.964 38.623 M179.380 38.623 C 179.818 38.657,180.493 38.657,180.880 38.622 C 181.267 38.587,180.908 38.559,180.083 38.559 C 179.258 38.560,178.942 38.588,179.380 38.623 M294.797 38.623 C 295.282 38.657,296.032 38.656,296.464 38.622 C 296.896 38.588,296.500 38.560,295.583 38.561 C 294.667 38.561,294.313 38.589,294.797 38.623 M182.875 38.782 C 183.035 38.823,183.298 38.823,183.458 38.782 C 183.619 38.740,183.487 38.705,183.167 38.705 C 182.846 38.705,182.715 38.740,182.875 38.782 M297.875 38.782 C 298.035 38.823,298.298 38.823,298.458 38.782 C 298.619 38.740,298.487 38.705,298.167 38.705 C 297.846 38.705,297.715 38.740,297.875 38.782 M56.750 38.994 C 57.058 39.121,59.663 39.038,59.819 38.896 C 59.858 38.862,59.108 38.839,58.153 38.845 C 57.074 38.852,56.543 38.909,56.750 38.994 M78.792 38.955 C 79.181 38.990,79.819 38.990,80.208 38.955 C 80.598 38.920,80.279 38.892,79.500 38.892 C 78.721 38.892,78.402 38.920,78.792 38.955 M244.000 38.997 C 244.225 39.140,246.814 39.053,246.986 38.896 C 247.024 38.862,246.312 38.834,245.403 38.836 C 244.291 38.838,243.832 38.890,244.000 38.997 M264.463 38.956 C 264.855 38.991,265.455 38.990,265.796 38.954 C 266.137 38.919,265.817 38.890,265.083 38.890 C 264.350 38.891,264.071 38.920,264.463 38.956 M55.417 39.167 C 55.360 39.258,55.468 39.333,55.657 39.333 C 55.846 39.333,56.000 39.258,56.000 39.167 C 56.000 39.075,55.892 39.000,55.760 39.000 C 55.628 39.000,55.473 39.075,55.417 39.167 M64.917 39.167 C 64.860 39.258,64.973 39.333,65.167 39.333 C 65.361 39.333,65.473 39.258,65.417 39.167 C 65.360 39.075,65.248 39.000,65.167 39.000 C 65.086 39.000,64.973 39.075,64.917 39.167 M72.833 39.167 C 72.639 39.292,72.688 39.329,73.052 39.331 C 73.322 39.332,73.476 39.263,73.417 39.167 C 73.289 38.960,73.154 38.960,72.833 39.167 M82.167 39.167 C 82.167 39.258,82.275 39.333,82.407 39.333 C 82.539 39.333,82.693 39.258,82.750 39.167 C 82.807 39.075,82.699 39.000,82.510 39.000 C 82.321 39.000,82.167 39.075,82.167 39.167 M99.417 39.167 C 99.360 39.258,99.473 39.333,99.667 39.333 C 99.861 39.333,99.973 39.258,99.917 39.167 C 99.860 39.075,99.748 39.000,99.667 39.000 C 99.586 39.000,99.473 39.075,99.417 39.167 M124.583 39.158 C 124.329 39.260,124.404 39.293,124.900 39.296 C 125.339 39.299,125.474 39.252,125.316 39.153 C 125.045 38.981,125.022 38.981,124.583 39.158 M242.583 39.167 C 242.527 39.258,242.635 39.333,242.823 39.333 C 243.012 39.333,243.167 39.258,243.167 39.167 C 243.167 39.075,243.059 39.000,242.927 39.000 C 242.794 39.000,242.640 39.075,242.583 39.167 M269.417 39.167 C 269.360 39.258,269.426 39.333,269.564 39.333 C 269.701 39.333,269.860 39.258,269.917 39.167 C 269.973 39.075,269.907 39.000,269.770 39.000 C 269.632 39.000,269.473 39.075,269.417 39.167 M48.413 54.667 C 48.413 63.146,48.434 66.615,48.458 62.375 C 48.483 58.135,48.483 51.198,48.458 46.958 C 48.434 42.719,48.413 46.188,48.413 54.667 M270.461 50.452 C 270.489 57.530,270.565 61.632,270.670 61.737 C 270.780 61.846,270.821 58.106,270.793 50.673 C 270.765 43.374,270.692 39.425,270.583 39.389 C 270.473 39.352,270.432 43.094,270.461 50.452 M143.119 39.878 C 143.166 40.129,143.272 40.333,143.353 40.333 C 143.567 40.333,143.534 40.110,143.266 39.743 C 143.047 39.444,143.037 39.452,143.119 39.878 M120.611 41.611 C 120.454 41.768,120.472 43.797,120.632 43.895 C 120.704 43.940,120.784 43.419,120.810 42.738 C 120.855 41.520,120.832 41.390,120.611 41.611 M25.417 43.000 C 25.481 43.105,27.221 43.167,30.083 43.167 C 32.946 43.167,34.685 43.105,34.750 43.000 C 34.818 42.890,33.221 42.833,30.083 42.833 C 26.946 42.833,25.349 42.890,25.417 43.000 M212.583 43.000 C 212.648 43.105,214.387 43.167,217.250 43.167 C 220.113 43.167,221.852 43.105,221.917 43.000 C 221.984 42.890,220.387 42.833,217.250 42.833 C 214.113 42.833,212.516 42.890,212.583 43.000 M120.594 45.436 C 120.657 46.014,120.792 46.116,120.792 45.587 C 120.792 45.353,120.737 45.127,120.669 45.085 C 120.602 45.043,120.568 45.201,120.594 45.436 M83.558 48.167 C 83.558 48.946,83.587 49.265,83.622 48.875 C 83.657 48.485,83.657 47.848,83.622 47.458 C 83.587 47.069,83.558 47.387,83.558 48.167 M92.048 48.083 C 92.049 48.542,92.081 48.709,92.120 48.456 C 92.158 48.203,92.157 47.828,92.117 47.623 C 92.078 47.418,92.046 47.625,92.048 48.083 M108.167 47.397 C 108.167 47.432,108.354 47.497,108.583 47.541 C 108.813 47.585,109.000 47.556,109.000 47.477 C 109.000 47.398,108.813 47.333,108.583 47.333 C 108.354 47.333,108.167 47.362,108.167 47.397 M121.000 47.783 C 121.000 48.006,121.458 48.597,121.555 48.500 C 121.601 48.454,121.494 48.240,121.319 48.023 C 121.144 47.807,121.000 47.699,121.000 47.783 M165.533 48.743 C 165.430 48.970,165.409 49.194,165.487 49.242 C 165.565 49.290,165.668 49.124,165.716 48.873 C 165.831 48.278,165.766 48.232,165.533 48.743 M139.034 48.623 C 139.649 48.655,140.699 48.656,141.368 48.624 C 142.036 48.592,141.533 48.566,140.250 48.566 C 138.967 48.565,138.420 48.591,139.034 48.623 M177.867 49.328 C 177.491 49.600,177.094 49.994,176.983 50.203 C 176.867 50.424,177.073 50.286,177.475 49.875 C 177.855 49.485,178.316 49.167,178.500 49.167 C 178.683 49.167,178.833 49.092,178.833 49.000 C 178.833 48.724,178.585 48.808,177.867 49.328 M181.583 49.245 C 181.858 49.470,182.128 49.657,182.182 49.661 C 182.618 49.687,182.855 52.336,182.483 53.031 C 182.357 53.268,182.355 53.340,182.479 53.263 C 183.375 52.709,182.962 50.022,181.856 49.208 C 181.169 48.703,180.957 48.731,181.583 49.245 M91.961 49.406 C 91.919 49.629,91.946 49.910,92.023 50.031 C 92.111 50.171,92.162 50.023,92.164 49.625 C 92.167 48.910,92.075 48.811,91.961 49.406 M294.000 49.167 C 294.137 49.256,294.362 49.328,294.500 49.328 C 294.722 49.328,294.722 49.310,294.500 49.167 C 294.362 49.078,294.137 49.005,294.000 49.005 C 293.778 49.005,293.778 49.023,294.000 49.167 M125.306 50.480 C 125.275 51.019,125.297 51.675,125.355 51.938 C 125.416 52.216,125.469 51.804,125.480 50.958 C 125.503 49.305,125.392 49.000,125.306 50.480 M295.485 49.972 C 295.575 50.140,295.781 50.384,295.943 50.514 C 296.151 50.681,296.127 50.593,295.857 50.208 C 295.446 49.621,295.221 49.479,295.485 49.972 M105.665 50.171 C 106.042 50.502,107.530 51.333,107.744 51.333 C 108.063 51.333,107.744 51.007,107.339 50.918 C 107.067 50.858,106.598 50.643,106.297 50.439 C 105.469 49.879,105.202 49.766,105.665 50.171 M290.875 56.333 C 290.855 59.771,290.901 62.683,290.978 62.804 C 291.237 63.211,293.500 63.537,293.500 63.167 C 293.500 63.075,293.130 63.000,292.678 63.000 C 292.225 63.000,291.664 62.927,291.430 62.838 L 291.004 62.676 290.958 56.380 L 290.913 50.083 290.875 56.333 M83.553 51.667 C 83.553 52.262,83.584 52.506,83.621 52.208 C 83.658 51.910,83.658 51.423,83.621 51.125 C 83.584 50.827,83.553 51.071,83.553 51.667 M296.173 50.925 C 296.176 51.012,296.291 51.271,296.430 51.500 L 296.681 51.917 296.572 51.500 C 296.458 51.065,296.162 50.639,296.173 50.925 M109.071 51.920 C 109.248 52.054,109.433 52.122,109.483 52.073 C 109.588 51.968,109.164 51.670,108.917 51.675 C 108.825 51.676,108.895 51.787,109.071 51.920 M164.500 52.593 C 164.500 52.835,164.572 52.975,164.667 52.917 C 164.758 52.860,164.833 52.668,164.833 52.490 C 164.833 52.312,164.758 52.167,164.667 52.167 C 164.575 52.167,164.500 52.359,164.500 52.593 M309.220 53.333 C 309.220 53.929,309.250 54.173,309.287 53.875 C 309.324 53.577,309.324 53.090,309.287 52.792 C 309.250 52.494,309.220 52.737,309.220 53.333 M296.856 52.945 C 296.844 53.143,296.790 53.443,296.737 53.611 C 296.647 53.900,296.652 53.901,296.832 53.620 C 296.936 53.457,296.990 53.157,296.950 52.954 C 296.879 52.584,296.879 52.584,296.856 52.945 M83.550 54.000 C 83.550 54.504,83.581 54.710,83.619 54.458 C 83.658 54.206,83.658 53.794,83.619 53.542 C 83.581 53.290,83.550 53.496,83.550 54.000 M164.388 54.750 C 164.389 55.392,164.419 55.634,164.455 55.288 C 164.491 54.942,164.490 54.417,164.454 54.121 C 164.417 53.825,164.387 54.108,164.388 54.750 M176.708 53.875 C 176.788 54.114,180.848 54.268,181.244 54.047 C 181.372 53.975,180.470 53.943,179.239 53.975 C 177.689 54.015,177.000 53.976,177.000 53.850 C 177.000 53.749,176.919 53.667,176.819 53.667 C 176.720 53.667,176.670 53.760,176.708 53.875 M297.050 56.167 C 297.049 57.912,297.073 58.155,297.155 57.250 C 297.213 56.608,297.213 55.596,297.156 55.000 C 297.078 54.203,297.051 54.510,297.050 56.167 M309.224 56.083 C 309.224 56.817,309.254 57.096,309.289 56.704 C 309.324 56.312,309.324 55.712,309.288 55.371 C 309.252 55.029,309.223 55.350,309.224 56.083 M94.531 56.250 C 94.730 56.479,94.919 56.667,94.951 56.667 C 94.982 56.667,94.885 56.479,94.735 56.250 C 94.585 56.021,94.396 55.833,94.315 55.833 C 94.235 55.833,94.332 56.021,94.531 56.250 M33.538 56.288 L 34.826 56.347 34.877 59.173 L 34.929 62.000 34.923 59.125 L 34.917 56.250 33.583 56.240 L 32.250 56.230 33.538 56.288 M25.243 63.417 C 25.243 67.267,25.265 68.818,25.292 66.864 C 25.318 64.910,25.318 61.760,25.291 59.864 C 25.265 57.968,25.243 59.567,25.243 63.417 M212.410 63.917 C 212.410 68.042,212.432 69.705,212.458 67.614 C 212.485 65.522,212.485 62.147,212.458 60.114 C 212.432 58.080,212.410 59.792,212.410 63.917 M164.383 57.833 C 164.383 58.337,164.415 58.544,164.453 58.292 C 164.491 58.040,164.491 57.627,164.453 57.375 C 164.415 57.123,164.383 57.329,164.383 57.833 M253.186 58.764 C 253.197 59.490,253.260 60.308,253.326 60.583 C 253.393 60.858,253.411 60.296,253.368 59.333 C 253.274 57.255,253.158 56.892,253.186 58.764 M296.767 58.778 C 296.920 59.416,297.000 59.477,297.000 58.954 C 297.000 58.715,296.922 58.471,296.827 58.413 C 296.713 58.342,296.692 58.468,296.767 58.778 M296.459 60.369 C 296.298 60.747,296.204 61.093,296.248 61.137 C 296.352 61.241,296.867 60.016,296.800 59.826 C 296.773 59.747,296.619 59.991,296.459 60.369 M100.297 60.040 C 100.491 60.273,101.167 60.558,101.167 60.405 C 101.167 60.370,100.923 60.216,100.625 60.062 C 100.167 59.825,100.116 59.822,100.297 60.040 M66.255 60.492 C 66.123 60.705,66.331 61.500,66.518 61.500 C 66.712 61.500,66.710 61.213,66.516 61.093 C 66.433 61.042,66.404 60.850,66.452 60.667 C 66.542 60.320,66.425 60.216,66.255 60.492 M72.186 60.863 C 72.171 61.218,72.012 61.387,71.418 61.684 C 71.006 61.890,70.697 62.086,70.731 62.120 C 71.061 62.450,72.415 61.227,72.283 60.718 C 72.231 60.516,72.199 60.564,72.186 60.863 M101.775 60.793 C 101.732 60.862,101.992 61.045,102.352 61.198 C 102.711 61.352,102.962 61.407,102.909 61.321 C 102.755 61.071,101.860 60.655,101.775 60.793 M92.345 61.651 C 92.155 61.917,92.000 62.217,92.000 62.317 C 92.000 62.418,91.925 62.500,91.833 62.500 C 91.742 62.500,91.667 62.575,91.667 62.667 C 91.667 63.042,91.943 62.781,92.375 61.998 C 92.885 61.073,92.871 60.912,92.345 61.651 M253.500 61.328 C 253.500 61.542,254.494 62.667,254.684 62.667 C 254.983 62.667,254.823 62.382,254.421 62.199 C 254.195 62.096,253.961 61.821,253.903 61.589 C 253.802 61.186,253.500 60.990,253.500 61.328 M176.705 61.619 C 176.672 62.183,176.863 63.167,177.006 63.167 C 177.084 63.167,177.107 62.810,177.057 62.375 C 176.963 61.568,176.736 61.082,176.705 61.619 M103.172 61.599 C 103.169 61.700,103.315 61.916,103.496 62.080 C 103.677 62.244,103.785 62.443,103.736 62.522 C 103.687 62.602,103.726 62.667,103.823 62.667 C 103.921 62.667,104.000 62.596,104.000 62.509 C 104.000 62.283,103.178 61.380,103.172 61.599 M66.752 62.047 C 66.913 62.302,67.087 62.468,67.138 62.417 C 67.190 62.366,67.058 62.157,66.846 61.954 L 66.460 61.583 66.752 62.047 M295.546 61.875 C 295.147 62.392,295.152 62.548,295.556 62.179 C 295.800 61.957,296.000 61.751,296.000 61.721 C 296.000 61.583,295.691 61.688,295.546 61.875 M95.167 61.993 C 95.167 62.082,95.317 62.235,95.500 62.333 C 95.683 62.431,95.833 62.452,95.833 62.379 C 95.833 62.306,95.683 62.153,95.500 62.039 C 95.315 61.923,95.167 61.903,95.167 61.993 M257.671 62.160 C 257.537 62.245,257.467 62.356,257.517 62.406 C 257.567 62.456,257.752 62.387,257.929 62.254 C 258.280 61.988,258.067 61.910,257.671 62.160 M69.838 62.327 C 69.703 62.412,69.657 62.542,69.736 62.616 C 69.815 62.690,69.911 62.660,69.950 62.551 C 69.989 62.442,70.129 62.393,70.261 62.444 C 70.392 62.494,70.500 62.453,70.500 62.351 C 70.500 62.127,70.173 62.115,69.838 62.327 M294.333 62.846 C 293.890 63.099,293.850 63.152,294.167 63.071 C 294.396 63.012,294.693 62.860,294.827 62.732 C 295.155 62.420,295.030 62.449,294.333 62.846 M68.125 62.870 C 68.395 63.000,68.605 63.000,68.875 62.870 C 69.204 62.711,69.159 62.689,68.500 62.689 C 67.841 62.689,67.796 62.711,68.125 62.870 M96.583 62.832 C 96.703 63.026,97.667 63.341,97.667 63.186 C 97.667 63.114,97.404 62.975,97.083 62.877 C 96.762 62.778,96.537 62.758,96.583 62.832 M255.250 62.833 C 255.380 63.044,255.841 63.044,256.167 62.833 C 256.352 62.713,256.253 62.671,255.782 62.669 C 255.401 62.668,255.188 62.733,255.250 62.833 M103.744 63.125 C 103.770 63.285,103.670 63.567,103.521 63.750 C 103.252 64.081,103.253 64.081,103.625 63.766 C 103.995 63.453,104.143 62.833,103.848 62.833 C 103.765 62.833,103.718 62.965,103.744 63.125 M189.011 63.237 C 188.850 63.431,188.876 63.458,189.157 63.384 C 189.346 63.335,189.500 63.228,189.500 63.147 C 189.500 62.922,189.231 62.972,189.011 63.237 M177.169 63.429 C 177.166 63.683,177.975 64.413,178.110 64.278 C 178.172 64.217,178.135 64.167,178.028 64.167 C 177.921 64.167,177.852 64.076,177.875 63.966 C 177.898 63.855,177.820 63.762,177.702 63.758 C 177.584 63.753,177.417 63.637,177.330 63.500 C 177.243 63.362,177.171 63.331,177.169 63.429 M242.060 63.917 C 242.117 64.283,242.164 64.715,242.165 64.875 C 242.166 65.035,242.240 65.167,242.330 65.167 C 242.535 65.167,242.356 63.649,242.123 63.417 C 242.012 63.305,241.991 63.472,242.060 63.917 M87.167 63.833 C 87.167 64.017,87.242 64.167,87.333 64.167 C 87.425 64.167,87.500 64.017,87.500 63.833 C 87.500 63.650,87.425 63.500,87.333 63.500 C 87.242 63.500,87.167 63.650,87.167 63.833 M54.927 64.167 C 54.998 64.487,55.044 64.923,55.029 65.134 C 55.014 65.352,55.074 65.474,55.168 65.416 C 55.363 65.295,55.202 63.996,54.961 63.750 C 54.855 63.641,54.843 63.786,54.927 64.167 M99.167 63.797 C 99.167 64.019,100.186 64.164,100.500 63.986 C 100.679 63.884,100.599 63.842,100.222 63.838 C 99.932 63.836,99.575 63.788,99.430 63.732 C 99.285 63.677,99.167 63.706,99.167 63.797 M187.500 63.833 C 187.500 63.925,187.612 64.000,187.750 64.000 C 187.887 64.000,188.000 63.925,188.000 63.833 C 188.000 63.742,187.887 63.667,187.750 63.667 C 187.612 63.667,187.500 63.742,187.500 63.833 M101.375 64.282 C 101.535 64.323,101.798 64.323,101.958 64.282 C 102.119 64.240,101.987 64.205,101.667 64.205 C 101.346 64.205,101.215 64.240,101.375 64.282 M178.886 64.617 C 179.045 64.875,179.992 65.022,180.308 64.838 C 180.521 64.713,180.445 64.676,179.972 64.672 C 179.636 64.669,179.230 64.616,179.070 64.555 C 178.888 64.485,178.819 64.508,178.886 64.617 M183.167 64.655 C 182.033 64.741,181.975 64.762,182.536 64.881 C 183.237 65.030,184.833 64.866,184.833 64.645 C 184.833 64.565,184.740 64.514,184.625 64.530 C 184.510 64.547,183.854 64.603,183.167 64.655 M274.728 66.083 C 274.728 67.000,274.756 67.354,274.790 66.869 C 274.824 66.385,274.823 65.635,274.789 65.203 C 274.755 64.770,274.727 65.167,274.728 66.083 M87.545 65.667 C 87.545 66.079,87.578 66.248,87.618 66.042 C 87.657 65.835,87.657 65.498,87.618 65.292 C 87.578 65.085,87.545 65.254,87.545 65.667 M166.463 65.989 C 166.617 66.258,166.767 66.456,166.795 66.427 C 166.885 66.337,166.451 65.500,166.314 65.500 C 166.242 65.500,166.309 65.720,166.463 65.989 M192.381 68.417 C 192.382 68.875,192.415 69.043,192.453 68.789 C 192.491 68.536,192.490 68.161,192.451 67.956 C 192.411 67.751,192.380 67.958,192.381 68.417 M168.844 69.083 C 170.005 70.276,170.472 70.670,169.979 70.042 C 169.569 69.519,167.863 67.833,167.744 67.833 C 167.680 67.833,168.175 68.396,168.844 69.083 M274.458 68.096 C 274.390 68.165,274.333 68.375,274.333 68.561 C 274.333 68.806,274.384 68.850,274.516 68.718 C 274.616 68.617,274.672 68.408,274.641 68.253 C 274.609 68.097,274.527 68.027,274.458 68.096 M76.083 70.000 C 76.027 70.092,76.079 70.167,76.200 70.167 C 76.321 70.167,76.518 70.324,76.638 70.516 C 76.758 70.708,76.895 70.827,76.942 70.781 C 77.051 70.671,76.505 69.833,76.324 69.833 C 76.248 69.833,76.140 69.908,76.083 70.000 M262.985 70.270 C 262.769 70.531,262.779 70.535,263.113 70.327 C 263.439 70.125,263.515 70.144,263.841 70.509 L 264.204 70.917 263.957 70.500 C 263.651 69.983,263.292 69.898,262.985 70.270 M77.500 71.583 C 77.715 71.813,77.919 72.000,77.953 72.000 C 78.092 72.000,77.405 71.177,77.263 71.172 C 77.178 71.169,77.285 71.354,77.500 71.583 M11.667 72.147 C 11.667 72.228,11.821 72.335,12.010 72.384 C 12.291 72.458,12.317 72.431,12.156 72.237 C 11.936 71.972,11.667 71.922,11.667 72.147 M34.833 72.147 C 34.833 72.228,34.988 72.335,35.176 72.384 C 35.458 72.458,35.484 72.431,35.322 72.237 C 35.102 71.972,34.833 71.922,34.833 72.147 M137.500 72.657 C 137.500 72.754,137.387 72.833,137.250 72.833 C 137.112 72.833,137.000 72.908,137.000 73.000 C 137.000 73.230,137.212 73.209,137.577 72.942 C 137.790 72.787,137.825 72.681,137.692 72.599 C 137.586 72.534,137.500 72.560,137.500 72.657 M126.500 73.000 C 126.500 73.092,126.612 73.167,126.750 73.167 C 126.888 73.167,127.000 73.092,127.000 73.000 C 127.000 72.908,126.888 72.833,126.750 72.833 C 126.612 72.833,126.500 72.908,126.500 73.000 M149.651 73.013 C 149.495 73.112,149.691 73.162,150.236 73.164 C 151.114 73.167,151.198 73.030,150.383 72.927 C 150.110 72.893,149.781 72.931,149.651 73.013 M66.056 73.611 C 66.173 73.728,68.364 73.691,68.485 73.570 C 68.524 73.532,67.968 73.500,67.250 73.500 C 66.532 73.500,65.994 73.550,66.056 73.611 M81.869 73.591 C 82.017 73.739,83.331 73.772,83.549 73.633 C 83.660 73.563,83.306 73.504,82.764 73.503 C 82.222 73.501,81.819 73.541,81.869 73.591 M102.057 73.624 C 101.951 73.693,102.499 73.739,103.275 73.727 C 104.051 73.714,104.721 73.667,104.765 73.624 C 104.899 73.490,102.263 73.490,102.057 73.624 M253.542 73.615 C 253.702 73.657,253.965 73.657,254.125 73.615 C 254.285 73.573,254.154 73.539,253.833 73.539 C 253.512 73.539,253.381 73.573,253.542 73.615 M269.227 73.616 C 269.348 73.737,270.686 73.702,270.814 73.574 C 270.855 73.533,270.489 73.500,270.000 73.500 C 269.511 73.500,269.163 73.552,269.227 73.616 M290.583 73.674 C 290.370 73.770,290.959 73.803,292.214 73.767 C 293.295 73.736,294.226 73.663,294.284 73.605 C 294.448 73.441,290.957 73.505,290.583 73.674 " stroke="none" fill="#353535" fill-rule="evenodd"></path><path id="path3" d="M14.375 25.782 C 14.535 25.823,14.798 25.823,14.958 25.782 C 15.119 25.740,14.987 25.705,14.667 25.705 C 14.346 25.705,14.215 25.740,14.375 25.782 M104.294 38.451 C 104.501 38.491,104.801 38.490,104.960 38.448 C 105.120 38.406,104.950 38.374,104.583 38.375 C 104.217 38.377,104.086 38.411,104.294 38.451 M253.372 48.167 C 253.372 48.487,253.406 48.619,253.448 48.458 C 253.490 48.298,253.490 48.035,253.448 47.875 C 253.406 47.715,253.372 47.846,253.372 48.167 M125.293 49.083 C 125.336 49.313,125.401 49.500,125.436 49.500 C 125.471 49.500,125.500 49.313,125.500 49.083 C 125.500 48.854,125.435 48.667,125.356 48.667 C 125.277 48.667,125.249 48.854,125.293 49.083 M179.375 48.802 C 178.370 48.899,178.824 49.083,180.068 49.083 C 180.747 49.083,181.272 49.035,181.235 48.976 C 181.149 48.836,180.067 48.735,179.375 48.802 M253.375 49.583 C 253.377 49.950,253.411 50.080,253.451 49.873 C 253.491 49.666,253.490 49.366,253.448 49.206 C 253.406 49.047,253.374 49.217,253.375 49.583 M294.765 49.563 C 294.815 49.694,295.001 49.838,295.178 49.885 C 295.563 49.985,295.446 49.739,294.994 49.497 C 294.741 49.362,294.693 49.375,294.765 49.563 M105.746 50.037 C 106.019 50.246,106.274 50.392,106.311 50.361 C 106.349 50.330,106.443 50.405,106.520 50.527 C 106.609 50.668,106.663 50.679,106.664 50.558 C 106.666 50.453,106.348 50.207,105.958 50.012 L 105.250 49.658 105.746 50.037 M177.010 50.404 C 176.736 50.735,176.554 53.667,176.809 53.667 C 176.938 53.667,177.000 53.202,177.000 52.239 C 177.000 51.454,177.078 50.666,177.173 50.489 C 177.375 50.110,177.291 50.066,177.010 50.404 M253.407 55.250 C 253.407 58.000,253.430 59.148,253.458 57.802 C 253.486 56.456,253.486 54.206,253.458 52.802 C 253.430 51.398,253.407 52.500,253.407 55.250 M296.450 52.000 C 296.502 52.321,296.609 52.655,296.689 52.742 C 296.911 52.985,296.850 52.485,296.587 51.917 L 296.357 51.417 296.450 52.000 M182.125 53.232 C 181.965 53.354,181.833 53.499,181.833 53.555 C 181.833 53.743,182.307 53.477,182.399 53.237 C 182.508 52.951,182.495 52.951,182.125 53.232 M296.716 53.751 C 296.707 54.071,296.767 54.291,296.850 54.240 C 297.034 54.126,297.041 53.657,296.864 53.377 C 296.785 53.252,296.726 53.400,296.716 53.751 M177.958 53.957 C 178.531 53.989,179.469 53.989,180.042 53.957 C 180.615 53.924,180.146 53.898,179.000 53.898 C 177.854 53.898,177.385 53.924,177.958 53.957 M66.218 56.417 C 66.219 56.967,66.250 57.172,66.287 56.872 C 66.325 56.572,66.324 56.122,66.286 55.872 C 66.248 55.622,66.217 55.867,66.218 56.417 M34.712 57.000 C 34.712 57.413,34.745 57.581,34.784 57.375 C 34.824 57.169,34.824 56.831,34.784 56.625 C 34.745 56.419,34.712 56.587,34.712 57.000 M83.548 57.083 C 83.549 57.542,83.581 57.709,83.620 57.456 C 83.658 57.203,83.657 56.828,83.617 56.623 C 83.578 56.418,83.546 56.625,83.548 57.083 M296.667 58.064 C 296.667 58.201,296.742 58.360,296.833 58.417 C 296.925 58.473,297.000 58.407,297.000 58.270 C 297.000 58.132,296.925 57.973,296.833 57.917 C 296.742 57.860,296.667 57.926,296.667 58.064 M83.562 60.000 C 83.562 60.962,83.589 61.356,83.623 60.875 C 83.657 60.394,83.657 59.606,83.623 59.125 C 83.589 58.644,83.562 59.038,83.562 60.000 M71.950 59.794 C 71.876 60.368,71.867 60.920,71.930 61.021 C 71.992 61.122,71.939 61.269,71.813 61.349 C 71.639 61.460,71.635 61.496,71.797 61.497 C 72.118 61.501,72.188 61.167,72.133 59.900 L 72.083 58.750 71.950 59.794 M66.268 59.597 C 66.126 59.967,66.141 60.581,66.289 60.433 C 66.404 60.319,66.516 59.333,66.415 59.333 C 66.390 59.333,66.323 59.452,66.268 59.597 M296.500 59.653 C 296.500 59.829,296.457 60.110,296.404 60.278 C 296.328 60.522,296.340 60.533,296.467 60.333 C 296.748 59.891,296.866 59.333,296.678 59.333 C 296.580 59.333,296.500 59.477,296.500 59.653 M34.735 62.417 C 34.735 63.975,34.760 64.635,34.791 63.883 C 34.821 63.131,34.821 61.856,34.791 61.050 C 34.760 60.243,34.735 60.858,34.735 62.417 M295.901 61.141 C 295.966 61.247,295.940 61.333,295.843 61.333 C 295.746 61.333,295.667 61.408,295.667 61.500 C 295.667 61.755,295.952 61.698,296.058 61.422 C 296.110 61.287,296.069 61.126,295.967 61.063 C 295.855 60.994,295.829 61.024,295.901 61.141 M294.828 62.256 C 294.713 62.395,294.667 62.556,294.726 62.615 C 294.785 62.674,294.833 62.630,294.833 62.518 C 294.833 62.406,294.903 62.357,294.988 62.410 C 295.074 62.462,295.188 62.434,295.241 62.348 C 295.411 62.073,295.047 61.992,294.828 62.256 M67.167 62.314 C 67.167 62.395,67.321 62.501,67.510 62.551 C 67.791 62.624,67.817 62.598,67.656 62.404 C 67.436 62.138,67.167 62.089,67.167 62.314 M180.333 64.827 C 180.155 64.947,180.461 64.996,181.403 64.997 C 182.128 64.999,182.686 64.964,182.642 64.919 C 182.467 64.744,180.569 64.668,180.333 64.827 M34.705 65.833 C 34.705 66.154,34.740 66.285,34.782 66.125 C 34.823 65.965,34.823 65.702,34.782 65.542 C 34.740 65.381,34.705 65.512,34.705 65.833 M101.375 73.615 C 101.535 73.657,101.798 73.657,101.958 73.615 C 102.119 73.573,101.987 73.539,101.667 73.539 C 101.346 73.539,101.215 73.573,101.375 73.615 M290.042 73.615 C 290.202 73.657,290.465 73.657,290.625 73.615 C 290.785 73.573,290.654 73.539,290.333 73.539 C 290.012 73.539,289.881 73.573,290.042 73.615 " stroke="none" fill="#525252" fill-rule="evenodd"></path><path id="path4" d="M353.708 9.948 C 353.869 9.990,354.131 9.990,354.292 9.948 C 354.452 9.906,354.321 9.872,354.000 9.872 C 353.679 9.872,353.548 9.906,353.708 9.948 M291.025 37.458 C 291.011 38.215,291.056 38.833,291.125 38.834 C 291.194 38.834,291.229 38.402,291.203 37.875 C 291.121 36.203,291.051 36.039,291.025 37.458 M125.212 49.500 C 125.212 49.913,125.245 50.081,125.284 49.875 C 125.324 49.669,125.324 49.331,125.284 49.125 C 125.245 48.919,125.212 49.087,125.212 49.500 M291.292 49.680 C 291.056 49.817,291.004 50.064,291.022 50.967 L 291.044 52.083 291.163 51.163 C 291.228 50.656,291.371 50.075,291.480 49.871 C 291.704 49.452,291.696 49.444,291.292 49.680 M177.104 50.590 C 177.047 50.739,177.008 51.023,177.017 51.222 C 177.028 51.450,177.084 51.369,177.171 51.001 C 177.317 50.382,177.277 50.139,177.104 50.590 M295.894 51.082 C 296.135 51.540,296.333 52.058,296.333 52.235 C 296.333 52.411,296.381 52.508,296.440 52.449 C 296.623 52.266,296.144 50.864,295.791 50.550 C 295.502 50.292,295.516 50.368,295.894 51.082 M296.500 53.000 C 296.500 53.311,296.544 53.356,296.700 53.200 C 296.856 53.044,296.856 52.956,296.700 52.800 C 296.544 52.644,296.500 52.689,296.500 53.000 M296.881 54.917 C 296.882 55.375,296.915 55.543,296.953 55.289 C 296.991 55.036,296.990 54.661,296.951 54.456 C 296.911 54.251,296.880 54.458,296.881 54.917 M30.200 56.457 C 30.997 56.488,32.347 56.488,33.200 56.458 C 34.052 56.427,33.400 56.402,31.750 56.402 C 30.100 56.402,29.402 56.427,30.200 56.457 M296.801 57.086 C 296.764 57.408,296.792 57.764,296.864 57.877 C 296.938 57.994,296.996 57.740,296.997 57.292 C 297.000 56.361,296.899 56.254,296.801 57.086 M66.194 58.500 C 66.183 59.282,66.231 59.656,66.322 59.500 C 66.402 59.362,66.409 58.800,66.339 58.250 L 66.210 57.250 66.194 58.500 M177.458 61.454 C 177.756 61.491,178.244 61.491,178.542 61.454 C 178.840 61.417,178.596 61.387,178.000 61.387 C 177.404 61.387,177.160 61.417,177.458 61.454 " stroke="none" fill="#848484" fill-rule="evenodd"></path></g></svg>